<?xml version="1.0" encoding="utf-8"?>
<!-- Generator: Adobe Illustrator 24.3.0, SVG Export Plug-In . SVG Version: 6.00 Build 0)  -->
<svg version="1.1" id="Layer_1" xmlns="http://www.w3.org/2000/svg" xmlns:xlink="http://www.w3.org/1999/xlink" x="0px" y="0px"
	 viewBox="0 0 1260 100" style="enable-background:new 0 0 1260 100;" xml:space="preserve">
<style type="text/css">
	.st0{fill:#FFCC99;stroke:#000000;}
	.st1{font-family:'ArialMT';}
	.st2{font-size:12px;}
	.st3{fill:#FFFF99;stroke:#000000;}
	.st4{fill:#CCFFFF;stroke:#000000;}
	.st5{fill:#99FF33;stroke:#000000;}
	.st6{fill:#CC99FF;stroke:#000000;}
</style>
<g>
	<rect class="st0" width="20" height="100"/>
	<text transform="matrix(1 0 0 1 5.667 25)" class="st1 st2">H</text>
	<text transform="matrix(1 0 0 1 5.998 50)" class="st1 st2">P</text>
	<text transform="matrix(1 0 0 1 5.998 75)" class="st1 st2">P</text>
</g>
<g>
	<rect x="20" class="st3" width="100" height="100"/>
	<text transform="matrix(1 0 0 1 50.3213 25)" class="st1 st2">Header</text>
	<text transform="matrix(1 0 0 1 44.9834 50)" class="st1 st2">Metadata</text>
</g>
<g>
	<rect x="120" class="st0" width="20" height="100"/>
	<text transform="matrix(1 0 0 1 125.998 25)" class="st1 st2">B</text>
	<text transform="matrix(1 0 0 1 125.998 50)" class="st1 st2">P</text>
	<text transform="matrix(1 0 0 1 125.998 75)" class="st1 st2">P</text>
</g>
<g>
	<rect x="140" class="st4" width="100" height="100"/>
	<text transform="matrix(1 0 0 1 179.6611 25)" class="st1 st2">Edit</text>
	<text transform="matrix(1 0 0 1 179.3301 50)" class="st1 st2">Unit</text>
</g>
<g>
	<rect x="240" class="st4" width="100" height="100"/>
	<text transform="matrix(1 0 0 1 284.999 25)" class="st1 st2">...</text>
</g>
<g>
	<rect x="340" class="st4" width="100" height="100"/>
	<text transform="matrix(1 0 0 1 379.6611 25)" class="st1 st2">Edit</text>
	<text transform="matrix(1 0 0 1 379.3301 50)" class="st1 st2">Unit</text>
</g>
<g>
	<rect x="440" class="st0" width="20" height="100"/>
	<text transform="matrix(1 0 0 1 445.998 25)" class="st1 st2">B</text>
	<text transform="matrix(1 0 0 1 445.998 50)" class="st1 st2">P</text>
	<text transform="matrix(1 0 0 1 445.998 75)" class="st1 st2">P</text>
</g>
<g>
	<rect x="460" class="st5" width="100" height="100"/>
	<text transform="matrix(1 0 0 1 495.3223 25)" class="st1 st2">Index</text>
	<text transform="matrix(1 0 0 1 495.6562 50)" class="st1 st2">Table</text>
</g>
<g>
	<rect x="560" class="st0" width="20" height="100"/>
	<text transform="matrix(1 0 0 1 565.998 25)" class="st1 st2">B</text>
	<text transform="matrix(1 0 0 1 565.998 50)" class="st1 st2">P</text>
	<text transform="matrix(1 0 0 1 565.998 75)" class="st1 st2">P</text>
</g>
<g>
	<rect x="580" class="st4" width="100" height="100"/>
	<text transform="matrix(1 0 0 1 619.6611 25)" class="st1 st2">Edit</text>
	<text transform="matrix(1 0 0 1 619.3301 50)" class="st1 st2">Unit</text>
</g>
<g>
	<rect x="680" class="st4" width="100" height="100"/>
	<text transform="matrix(1 0 0 1 724.999 25)" class="st1 st2">...</text>
</g>
<g>
	<rect x="780" class="st4" width="100" height="100"/>
	<text transform="matrix(1 0 0 1 819.6611 25)" class="st1 st2">Edit</text>
	<text transform="matrix(1 0 0 1 819.3301 50)" class="st1 st2">Unit</text>
</g>
<g>
	<rect x="880" class="st4" width="100" height="100"/>
	<text transform="matrix(1 0 0 1 924.999 25)" class="st1 st2">...</text>
</g>
<g>
	<rect x="980" class="st0" width="20" height="100"/>
	<text transform="matrix(1 0 0 1 985.998 25)" class="st1 st2">B</text>
	<text transform="matrix(1 0 0 1 985.998 50)" class="st1 st2">P</text>
	<text transform="matrix(1 0 0 1 985.998 75)" class="st1 st2">P</text>
</g>
<g>
	<rect x="1000" class="st5" width="100" height="100"/>
	<text transform="matrix(1 0 0 1 1035.3223 25)" class="st1 st2">Index</text>
	<text transform="matrix(1 0 0 1 1035.6562 50)" class="st1 st2">Table</text>
</g>
<g>
	<rect x="1100" class="st0" width="20" height="100"/>
	<text transform="matrix(1 0 0 1 1105.998 25)" class="st1 st2">B</text>
	<text transform="matrix(1 0 0 1 1105.998 50)" class="st1 st2">P</text>
	<text transform="matrix(1 0 0 1 1105.998 75)" class="st1 st2">P</text>
</g>
<g>
	<rect x="1120" class="st4" width="100" height="100"/>
	<text transform="matrix(1 0 0 1 1164.999 25)" class="st1 st2">...</text>
</g>
<g>
	<rect x="1220" class="st0" width="20" height="100"/>
	<text transform="matrix(1 0 0 1 1226.335 25)" class="st1 st2">F</text>
	<text transform="matrix(1 0 0 1 1225.998 50)" class="st1 st2">P</text>
	<text transform="matrix(1 0 0 1 1225.998 75)" class="st1 st2">P</text>
</g>
<g>
	<rect x="1240" class="st6" width="20" height="100"/>
	<text transform="matrix(1 0 0 1 1245.667 25)" class="st1 st2">R</text>
	<text transform="matrix(1 0 0 1 1248.333 50)" class="st1 st2">I</text>
	<text transform="matrix(1 0 0 1 1245.998 75)" class="st1 st2">P</text>
</g>
</svg>
