<?xml version="1.0" encoding="utf-8"?>
<!-- Generator: Adobe Illustrator 24.3.0, SVG Export Plug-In . SVG Version: 6.00 Build 0)  -->
<svg version="1.1" id="Layer_1" xmlns="http://www.w3.org/2000/svg" xmlns:xlink="http://www.w3.org/1999/xlink" x="0px" y="0px"
	 viewBox="0 0 860 100" style="enable-background:new 0 0 860 100;" xml:space="preserve">
<style type="text/css">
	.st0{fill:#FFCC99;stroke:#000000;}
	.st1{font-family:'ArialMT';}
	.st2{font-size:12px;}
	.st3{fill:#FFFF99;stroke:#000000;}
	.st4{fill:#99FF33;stroke:#000000;}
	.st5{fill:#CCFFFF;stroke:#000000;}
	.st6{fill:#CC99FF;stroke:#000000;}
</style>
<g>
	<rect class="st0" width="20" height="100"/>
	<text transform="matrix(1 0 0 1 5.667 25)" class="st1 st2">H</text>
	<text transform="matrix(1 0 0 1 5.998 50)" class="st1 st2">P</text>
	<text transform="matrix(1 0 0 1 5.998 75)" class="st1 st2">P</text>
</g>
<g>
	<rect x="20" class="st3" width="100" height="100"/>
	<text transform="matrix(1 0 0 1 50.3213 25)" class="st1 st2">Header</text>
	<text transform="matrix(1 0 0 1 44.9834 50)" class="st1 st2">Metadata</text>
</g>
<g>
	<rect x="120" class="st4" width="100" height="100"/>
	<text transform="matrix(1 0 0 1 155.3223 25)" class="st1 st2">Index</text>
	<text transform="matrix(1 0 0 1 155.6562 50)" class="st1 st2">Table</text>
</g>
<g>
	<rect x="220" class="st5" width="100" height="100"/>
	<text transform="matrix(1 0 0 1 259.6611 25)" class="st1 st2">Edit</text>
	<text transform="matrix(1 0 0 1 259.3301 50)" class="st1 st2">Unit</text>
	<rect x="320" class="st5" width="100" height="100"/>
	<text transform="matrix(1 0 0 1 359.6611 25)" class="st1 st2">Edit</text>
	<text transform="matrix(1 0 0 1 359.3301 50)" class="st1 st2">Unit</text>
	<rect x="420" class="st5" width="100" height="100"/>
	<text transform="matrix(1 0 0 1 459.6611 25)" class="st1 st2">Edit</text>
	<text transform="matrix(1 0 0 1 459.3301 50)" class="st1 st2">Unit</text>
</g>
<g>
	<rect x="520" class="st5" width="100" height="100"/>
	<text transform="matrix(1 0 0 1 564.999 25)" class="st1 st2">...</text>
</g>
<g>
	<rect x="620" class="st5" width="100" height="100"/>
	<text transform="matrix(1 0 0 1 659.6611 25)" class="st1 st2">Edit</text>
	<text transform="matrix(1 0 0 1 659.3301 50)" class="st1 st2">Unit</text>
	<rect x="720" class="st5" width="100" height="100"/>
	<text transform="matrix(1 0 0 1 759.6611 25)" class="st1 st2">Edit</text>
	<text transform="matrix(1 0 0 1 759.3301 50)" class="st1 st2">Unit</text>
</g>
<g>
	<rect x="820" class="st0" width="20" height="100"/>
	<text transform="matrix(1 0 0 1 826.335 25)" class="st1 st2">F</text>
	<text transform="matrix(1 0 0 1 825.998 50)" class="st1 st2">P</text>
	<text transform="matrix(1 0 0 1 825.998 75)" class="st1 st2">P</text>
</g>
<g>
	<rect x="840" class="st6" width="20" height="100"/>
	<text transform="matrix(1 0 0 1 845.667 25)" class="st1 st2">R</text>
	<text transform="matrix(1 0 0 1 848.333 50)" class="st1 st2">I</text>
	<text transform="matrix(1 0 0 1 845.998 75)" class="st1 st2">P</text>
</g>
</svg>
