<svg id="Layer_3" data-name="Layer 3" xmlns="http://www.w3.org/2000/svg" viewBox="0 0 866.72 150.34"><rect x="109.19" y="52.42" width="27.24" height="57.15" style="fill:#cce8ff;stroke:#000;stroke-linecap:round;stroke-miterlimit:8;stroke-width:0.782600581645966px"/><rect x="136.43" y="52.42" width="223.04" height="57.15" style="fill:none;stroke:#000;stroke-linecap:round;stroke-miterlimit:8;stroke-width:0.782600581645966px"/><rect x="136.43" y="81.3" width="223.04" height="28.28" style="fill:#ff9;stroke:#000;stroke-linecap:round;stroke-miterlimit:8;stroke-width:0.782600581645966px"/><line x1="142.04" y1="72.06" x2="353.85" y2="72.33" style="fill:none;stroke:#000;stroke-linecap:round;stroke-miterlimit:8;stroke-width:0.782600581645966px"/><polygon points="143.18 75.96 136.43 72.05 143.19 68.16 143.18 75.96"/><polygon points="352.7 76.23 359.46 72.33 352.71 68.42 352.7 76.23"/><text transform="translate(223.32 68.93)" style="font-size:10px;font-family:ArialMT, Arial">1 Frame</text><text transform="translate(217.08 14.59)" style="font-size:10px;font-family:ArialMT, Arial">Picture Item</text><text transform="translate(120.21 84.68)" style="font-size:10px;font-family:ArialMT, Arial;letter-spacing:-0.037109375em">L</text><rect x="82.45" y="52.42" width="27.24" height="57.15" style="fill:#ffe4cc;stroke:#000;stroke-linecap:round;stroke-miterlimit:8;stroke-width:0.782600581645966px"/><text transform="translate(92.49 85.02)" style="font-size:10px;font-family:ArialMT, Arial">K</text><rect x="386.32" y="52.42" width="27.24" height="57.15" style="fill:#cce8ff;stroke:#000;stroke-linecap:round;stroke-miterlimit:8;stroke-width:0.782600581645966px"/><text transform="translate(397.34 84.68)" style="font-size:10px;font-family:ArialMT, Arial;letter-spacing:-0.037109375em">L</text><rect x="413.49" y="52.42" width="27.24" height="57.15" style="fill:silver;stroke:#000;stroke-linecap:round;stroke-miterlimit:8;stroke-width:0.782600581645966px"/><text transform="translate(420.72 84.68)" style="font-size:10px;font-family:ArialMT, Arial">Fill<tspan x="-3.34" y="12">[opt]</tspan></text><rect x="359.58" y="52.42" width="27.24" height="57.15" style="fill:#ffe4cc;stroke:#000;stroke-linecap:round;stroke-miterlimit:8;stroke-width:0.782600581645966px"/><text transform="translate(369.62 85.02)" style="font-size:10px;font-family:ArialMT, Arial">K</text><text transform="translate(202.56 98.13)" style="font-size:10px;font-family:ArialMT, Arial">S<tspan x="6.67" y="0" style="letter-spacing:-0.01806640625em">T</tspan><tspan x="12.6" y="0" xml:space="preserve"> 2</tspan><tspan x="20.94" y="0" style="letter-spacing:-0.07421875em">1</tspan><tspan x="25.76" y="0">17-1 Bitstream</tspan></text><polyline points="440.73 30.79 440.73 18.11 82.45 18.11 82.45 30.79" style="fill:none;stroke:silver;stroke-miterlimit:10"/><text transform="translate(248.56 143.14)" style="font-size:10px;font-family:ArialMT, Arial">V</text><text transform="translate(373.54 143.14)" style="font-size:10px;font-family:ArialMT, Arial">Optional Fill</text><polyline points="359.46 117.53 359.46 130.21 136.43 130.21 136.43 117.53" style="fill:none;stroke:silver;stroke-miterlimit:10"/><polyline points="440.73 117.53 440.73 130.21 359.58 130.21 359.58 117.53" style="fill:none;stroke:silver;stroke-miterlimit:10"/><rect x="466.92" y="52.42" width="27.24" height="57.15" style="fill:#cce8ff;stroke:#000;stroke-linecap:round;stroke-miterlimit:8;stroke-width:0.782600581645966px"/><rect x="494.16" y="52.42" width="223.04" height="57.15" style="fill:none;stroke:#000;stroke-linecap:round;stroke-miterlimit:8;stroke-width:0.782600581645966px"/><rect x="494.16" y="81.3" width="223.04" height="28.28" style="fill:#ff9;stroke:#000;stroke-linecap:round;stroke-miterlimit:8;stroke-width:0.782600581645966px"/><line x1="499.78" y1="72.06" x2="711.59" y2="72.33" style="fill:none;stroke:#000;stroke-linecap:round;stroke-miterlimit:8;stroke-width:0.782600581645966px"/><polygon points="500.91 75.96 494.16 72.05 500.92 68.16 500.91 75.96"/><polygon points="710.44 76.23 717.2 72.33 710.45 68.42 710.44 76.23"/><text transform="translate(581.06 68.93)" style="font-size:10px;font-family:ArialMT, Arial">1 Frame</text><text transform="translate(574.81 14.59)" style="font-size:10px;font-family:ArialMT, Arial">Picture Item</text><text transform="translate(820.01 87.23)" style="font-size:10px;font-family:ArialMT, Arial">...</text><text transform="translate(48.81 87.23)" style="font-size:10px;font-family:ArialMT, Arial">...</text><text transform="translate(477.95 84.68)" style="font-size:10px;font-family:ArialMT, Arial;letter-spacing:-0.037109375em">L</text><rect x="440.19" y="52.42" width="27.24" height="57.15" style="fill:#ffe4cc;stroke:#000;stroke-linecap:round;stroke-miterlimit:8;stroke-width:0.782600581645966px"/><text transform="translate(450.22 85.02)" style="font-size:10px;font-family:ArialMT, Arial">K</text><rect x="744.06" y="52.42" width="27.24" height="57.15" style="fill:#cce8ff;stroke:#000;stroke-linecap:round;stroke-miterlimit:8;stroke-width:0.782600581645966px"/><text transform="translate(755.08 84.68)" style="font-size:10px;font-family:ArialMT, Arial;letter-spacing:-0.037109375em">L</text><rect x="771.23" y="52.42" width="27.24" height="57.15" style="fill:silver;stroke:#000;stroke-linecap:round;stroke-miterlimit:8;stroke-width:0.782600581645966px"/><text transform="translate(778.46 84.68)" style="font-size:10px;font-family:ArialMT, Arial">Fill<tspan x="-3.34" y="12">[opt]</tspan></text><rect x="717.32" y="52.42" width="27.24" height="57.15" style="fill:#ffe4cc;stroke:#000;stroke-linecap:round;stroke-miterlimit:8;stroke-width:0.782600581645966px"/><text transform="translate(727.35 85.02)" style="font-size:10px;font-family:ArialMT, Arial">K</text><text transform="translate(560.29 98.13)" style="font-size:10px;font-family:ArialMT, Arial">S<tspan x="6.67" y="0" style="letter-spacing:-0.01806640625em">T</tspan><tspan x="12.6" y="0" xml:space="preserve"> 2</tspan><tspan x="20.94" y="0" style="letter-spacing:-0.07421875em">1</tspan><tspan x="25.76" y="0">17-1 Bitstream</tspan></text><polyline points="798.46 30.79 798.46 18.11 440.19 18.11 440.19 30.79" style="fill:none;stroke:silver;stroke-miterlimit:10"/><text transform="translate(606.3 143.14)" style="font-size:10px;font-family:ArialMT, Arial">V</text><text transform="translate(731.28 143.14)" style="font-size:10px;font-family:ArialMT, Arial">Optional Fill</text><polyline points="717.2 117.53 717.2 130.21 494.16 130.21 494.16 117.53" style="fill:none;stroke:silver;stroke-miterlimit:10"/><polyline points="798.46 117.53 798.46 130.21 717.32 130.21 717.32 117.53" style="fill:none;stroke:silver;stroke-miterlimit:10"/></svg>