<svg id="Layer_3" data-name="Layer 3" xmlns="http://www.w3.org/2000/svg" viewBox="0 0 1093.13 150.34"><rect x="37.46" y="52.42" width="27.24" height="57.15" style="fill:#cce8ff;stroke:#000;stroke-linecap:round;stroke-miterlimit:8;stroke-width:0.782600581645966px"/><rect x="64.7" y="52.42" width="223.04" height="57.15" style="fill:none;stroke:#000;stroke-linecap:round;stroke-miterlimit:8;stroke-width:0.782600581645966px"/><rect x="64.7" y="81.3" width="223.04" height="28.28" style="fill:#ff9;stroke:#000;stroke-linecap:round;stroke-miterlimit:8;stroke-width:0.782600581645966px"/><line x1="70.32" y1="72.06" x2="282.12" y2="72.33" style="fill:none;stroke:#000;stroke-linecap:round;stroke-miterlimit:8;stroke-width:0.782600581645966px"/><polygon points="71.45 75.96 64.7 72.05 71.46 68.16 71.45 75.96"/><polygon points="280.98 76.23 287.74 72.33 280.99 68.42 280.98 76.23"/><text transform="translate(151.6 68.93)" style="font-size:10px;font-family:ArialMT, Arial">1 Frame</text><text transform="translate(145.35 14.59)" style="font-size:10px;font-family:ArialMT, Arial">Picture Item</text><text transform="translate(48.49 84.68)" style="font-size:10px;font-family:ArialMT, Arial;letter-spacing:-0.037109375em">L</text><rect x="10.73" y="52.42" width="27.24" height="57.15" style="fill:#ffe4cc;stroke:#000;stroke-linecap:round;stroke-miterlimit:8;stroke-width:0.782600581645966px"/><text transform="translate(20.76 85.02)" style="font-size:10px;font-family:ArialMT, Arial">K</text><rect x="314.6" y="52.42" width="27.24" height="57.15" style="fill:#cce8ff;stroke:#000;stroke-linecap:round;stroke-miterlimit:8;stroke-width:0.782600581645966px"/><text transform="translate(325.62 84.68)" style="font-size:10px;font-family:ArialMT, Arial;letter-spacing:-0.037109375em">L</text><rect x="341.77" y="52.42" width="27.24" height="57.15" style="fill:silver;stroke:#000;stroke-linecap:round;stroke-miterlimit:8;stroke-width:0.782600581645966px"/><text transform="translate(349 84.68)" style="font-size:10px;font-family:ArialMT, Arial">Fill<tspan x="-3.34" y="12">[opt]</tspan></text><rect x="287.86" y="52.42" width="27.24" height="57.15" style="fill:#ffe4cc;stroke:#000;stroke-linecap:round;stroke-miterlimit:8;stroke-width:0.782600581645966px"/><text transform="translate(297.89 85.02)" style="font-size:10px;font-family:ArialMT, Arial">K</text><text transform="translate(130.83 98.13)" style="font-size:10px;font-family:ArialMT, Arial">S<tspan x="6.67" y="0" style="letter-spacing:-0.01806640625em">T</tspan><tspan x="12.6" y="0" xml:space="preserve"> 2</tspan><tspan x="20.94" y="0" style="letter-spacing:-0.07421875em">1</tspan><tspan x="25.76" y="0">17-1 Bitstream</tspan></text><polyline points="369 30.79 369 18.11 10.73 18.11 10.73 30.79" style="fill:none;stroke:silver;stroke-miterlimit:10"/><text transform="translate(176.83 143.14)" style="font-size:10px;font-family:ArialMT, Arial">V</text><text transform="translate(301.82 143.14)" style="font-size:10px;font-family:ArialMT, Arial">Optional Fill</text><polyline points="287.74 117.53 287.74 130.21 64.7 130.21 64.7 117.53" style="fill:none;stroke:silver;stroke-miterlimit:10"/><polyline points="369 117.53 369 130.21 287.86 130.21 287.86 117.53" style="fill:none;stroke:silver;stroke-miterlimit:10"/><rect x="395.2" y="52.42" width="27.24" height="57.15" style="fill:#cce8ff;stroke:#000;stroke-linecap:round;stroke-miterlimit:8;stroke-width:0.782600581645966px"/><rect x="422.44" y="52.42" width="223.04" height="57.15" style="fill:none;stroke:#000;stroke-linecap:round;stroke-miterlimit:8;stroke-width:0.782600581645966px"/><rect x="422.44" y="81.3" width="223.04" height="28.28" style="fill:#ff9;stroke:#000;stroke-linecap:round;stroke-miterlimit:8;stroke-width:0.782600581645966px"/><line x1="428.05" y1="72.06" x2="639.86" y2="72.33" style="fill:none;stroke:#000;stroke-linecap:round;stroke-miterlimit:8;stroke-width:0.782600581645966px"/><polygon points="429.19 75.96 422.44 72.05 429.2 68.16 429.19 75.96"/><polygon points="638.71 76.23 645.48 72.33 638.72 68.42 638.71 76.23"/><text transform="translate(509.33 68.93)" style="font-size:10px;font-family:ArialMT, Arial">1 Frame</text><text transform="translate(503.09 14.59)" style="font-size:10px;font-family:ArialMT, Arial">Picture Item</text><text transform="translate(406.22 84.68)" style="font-size:10px;font-family:ArialMT, Arial;letter-spacing:-0.037109375em">L</text><rect x="368.46" y="52.42" width="27.24" height="57.15" style="fill:#ffe4cc;stroke:#000;stroke-linecap:round;stroke-miterlimit:8;stroke-width:0.782600581645966px"/><text transform="translate(378.5 85.02)" style="font-size:10px;font-family:ArialMT, Arial">K</text><rect x="672.33" y="52.42" width="27.24" height="57.15" style="fill:#cce8ff;stroke:#000;stroke-linecap:round;stroke-miterlimit:8;stroke-width:0.782600581645966px"/><text transform="translate(683.35 84.68)" style="font-size:10px;font-family:ArialMT, Arial;letter-spacing:-0.037109375em">L</text><rect x="699.5" y="52.42" width="27.24" height="57.15" style="fill:silver;stroke:#000;stroke-linecap:round;stroke-miterlimit:8;stroke-width:0.782600581645966px"/><text transform="translate(706.73 84.68)" style="font-size:10px;font-family:ArialMT, Arial">Fill<tspan x="-3.34" y="12">[opt]</tspan></text><rect x="645.59" y="52.42" width="27.24" height="57.15" style="fill:#ffe4cc;stroke:#000;stroke-linecap:round;stroke-miterlimit:8;stroke-width:0.782600581645966px"/><text transform="translate(655.63 85.02)" style="font-size:10px;font-family:ArialMT, Arial">K</text><text transform="translate(488.57 98.13)" style="font-size:10px;font-family:ArialMT, Arial">S<tspan x="6.67" y="0" style="letter-spacing:-0.01806640625em">T</tspan><tspan x="12.6" y="0" xml:space="preserve"> 2</tspan><tspan x="20.94" y="0" style="letter-spacing:-0.07421875em">1</tspan><tspan x="25.76" y="0">17-1 Bitstream</tspan></text><polyline points="726.74 30.79 726.74 18.11 368.46 18.11 368.46 30.79" style="fill:none;stroke:silver;stroke-miterlimit:10"/><text transform="translate(534.57 143.14)" style="font-size:10px;font-family:ArialMT, Arial">V</text><text transform="translate(659.55 143.14)" style="font-size:10px;font-family:ArialMT, Arial">Optional Fill</text><polyline points="645.48 117.53 645.48 130.21 422.44 130.21 422.44 117.53" style="fill:none;stroke:silver;stroke-miterlimit:10"/><polyline points="726.74 117.53 726.74 130.21 645.6 130.21 645.6 117.53" style="fill:none;stroke:silver;stroke-miterlimit:10"/><rect x="753.44" y="52.42" width="27.24" height="57.15" style="fill:#cce8ff;stroke:#000;stroke-linecap:round;stroke-miterlimit:8;stroke-width:0.782600581645966px"/><rect x="780.68" y="52.42" width="223.04" height="57.15" style="fill:none;stroke:#000;stroke-linecap:round;stroke-miterlimit:8;stroke-width:0.782600581645966px"/><rect x="780.68" y="81.3" width="223.04" height="28.28" style="fill:#ff9;stroke:#000;stroke-linecap:round;stroke-miterlimit:8;stroke-width:0.782600581645966px"/><line x1="786.3" y1="72.06" x2="998.11" y2="72.33" style="fill:none;stroke:#000;stroke-linecap:round;stroke-miterlimit:8;stroke-width:0.782600581645966px"/><polygon points="787.43 75.96 780.68 72.05 787.45 68.16 787.43 75.96"/><polygon points="996.96 76.23 1003.72 72.33 996.97 68.42 996.96 76.23"/><text transform="translate(867.58 68.93)" style="font-size:10px;font-family:ArialMT, Arial">1 Frame</text><text transform="translate(861.33 14.59)" style="font-size:10px;font-family:ArialMT, Arial">Picture Item</text><text transform="translate(764.47 84.68)" style="font-size:10px;font-family:ArialMT, Arial;letter-spacing:-0.037109375em">L</text><rect x="726.71" y="52.42" width="27.24" height="57.15" style="fill:#ffe4cc;stroke:#000;stroke-linecap:round;stroke-miterlimit:8;stroke-width:0.782600581645966px"/><text transform="translate(736.74 85.02)" style="font-size:10px;font-family:ArialMT, Arial">K</text><rect x="1030.58" y="52.42" width="27.24" height="57.15" style="fill:#cce8ff;stroke:#000;stroke-linecap:round;stroke-miterlimit:8;stroke-width:0.782600581645966px"/><text transform="translate(1041.6 84.68)" style="font-size:10px;font-family:ArialMT, Arial;letter-spacing:-0.037109375em">L</text><rect x="1057.75" y="52.42" width="27.24" height="57.15" style="fill:silver;stroke:#000;stroke-linecap:round;stroke-miterlimit:8;stroke-width:0.782600581645966px"/><text transform="translate(1064.98 84.68)" style="font-size:10px;font-family:ArialMT, Arial">Fill<tspan x="-3.34" y="12">[opt]</tspan></text><rect x="1003.84" y="52.42" width="27.24" height="57.15" style="fill:#ffe4cc;stroke:#000;stroke-linecap:round;stroke-miterlimit:8;stroke-width:0.782600581645966px"/><text transform="translate(1013.87 85.02)" style="font-size:10px;font-family:ArialMT, Arial">K</text><text transform="translate(846.81 98.13)" style="font-size:10px;font-family:ArialMT, Arial">S<tspan x="6.67" y="0" style="letter-spacing:-0.01806640625em">T</tspan><tspan x="12.6" y="0" xml:space="preserve"> 2</tspan><tspan x="20.94" y="0" style="letter-spacing:-0.07421875em">1</tspan><tspan x="25.76" y="0">17-1 Bitstream</tspan></text><polyline points="1084.98 30.79 1084.98 18.11 726.71 18.11 726.71 30.79" style="fill:none;stroke:silver;stroke-miterlimit:10"/><text transform="translate(892.82 143.14)" style="font-size:10px;font-family:ArialMT, Arial">V</text><text transform="translate(1017.8 143.14)" style="font-size:10px;font-family:ArialMT, Arial">Optional Fill</text><polyline points="1003.72 117.53 1003.72 130.21 780.68 130.21 780.68 117.53" style="fill:none;stroke:silver;stroke-miterlimit:10"/><polyline points="1084.98 117.53 1084.98 130.21 1003.84 130.21 1003.84 117.53" style="fill:none;stroke:silver;stroke-miterlimit:10"/></svg>