         <svg width=1500 height=200 viewBox="0 0 1500 200" preserveAspectRatio="xMidYMid meet" xmlns="http://www.w3.org/2000/svg"><g><rect x="0" y="0" width="20" height="100" style="fill:#FFCC99;stroke-width:1;stroke:#000" class="mxf-sketch"></rect><text x="10" y="25" text-anchor="middle" class="mxf-sketch">H</text><text x="10" y="50" text-anchor="middle" class="mxf-sketch">P</text><text x="10" y="75" text-anchor="middle" class="mxf-sketch">P</text></g><g><rect x="20" y="0" width="100" height="100" style="fill:#FFFF99;stroke-width:1;stroke:#000" class="mxf-sketch"></rect><text x="70" y="25" text-anchor="middle" class="mxf-sketch">Header</text><text x="70" y="50" text-anchor="middle" class="mxf-sketch">Metadata</text></g><g><rect x="120" y="0" width="100" height="100" style="fill:#99FF33;stroke-width:1;stroke:#000" class="mxf-sketch"></rect><text x="170" y="25" text-anchor="middle" class="mxf-sketch">Index</text><text x="170" y="50" text-anchor="middle" class="mxf-sketch">Table</text></g><g><rect x="220" y="0" width="100" height="100" style="fill:#CCFFFF;stroke-width:1;stroke:#000" class="mxf-sketch"></rect><text x="270" y="25" text-anchor="middle" class="mxf-sketch">Edit</text><text x="270" y="50" text-anchor="middle" class="mxf-sketch">Unit</text><rect x="320" y="0" width="100" height="100" style="fill:#CCFFFF;stroke-width:1;stroke:#000" class="mxf-sketch"></rect><text x="370" y="25" text-anchor="middle" class="mxf-sketch">Edit</text><text x="370" y="50" text-anchor="middle" class="mxf-sketch">Unit</text><rect x="420" y="0" width="100" height="100" style="fill:#CCFFFF;stroke-width:1;stroke:#000" class="mxf-sketch"></rect><text x="470" y="25" text-anchor="middle" class="mxf-sketch">Edit</text><text x="470" y="50" text-anchor="middle" class="mxf-sketch">Unit</text></g><g><rect x="520" y="0" width="100" height="100" style="fill:#CCFFFF;stroke-width:1;stroke:#000" class="mxf-sketch"></rect><text x="570" y="25" text-anchor="middle" class="mxf-sketch">...</text></g><g><rect x="620" y="0" width="100" height="100" style="fill:#CCFFFF;stroke-width:1;stroke:#000" class="mxf-sketch"></rect><text x="670" y="25" text-anchor="middle" class="mxf-sketch">Edit</text><text x="670" y="50" text-anchor="middle" class="mxf-sketch">Unit</text><rect x="720" y="0" width="100" height="100" style="fill:#CCFFFF;stroke-width:1;stroke:#000" class="mxf-sketch"></rect><text x="770" y="25" text-anchor="middle" class="mxf-sketch">Edit</text><text x="770" y="50" text-anchor="middle" class="mxf-sketch">Unit</text></g><g><rect x="820" y="0" width="20" height="100" style="fill:#FFCC99;stroke-width:1;stroke:#000" class="mxf-sketch"></rect><text x="830" y="25" text-anchor="middle" class="mxf-sketch">F</text><text x="830" y="50" text-anchor="middle" class="mxf-sketch">P</text><text x="830" y="75" text-anchor="middle" class="mxf-sketch">P</text></g><g><rect x="840" y="0" width="20" height="100" style="fill:#CC99FF;stroke-width:1;stroke:#000" class="mxf-sketch"></rect><text x="850" y="25" text-anchor="middle" class="mxf-sketch">R</text><text x="850" y="50" text-anchor="middle" class="mxf-sketch">I</text><text x="850" y="75" text-anchor="middle" class="mxf-sketch">P</text></g></svg>